<svg id="Layer_1" data-name="Layer 1" xmlns="http://www.w3.org/2000/svg" xmlns:xlink="http://www.w3.org/1999/xlink" viewBox="0 0 1366 1093.71"><defs><style>.cls-1{fill:url(#linear-gradient);}.cls-13,.cls-2,.cls-6{fill:#020202;}.cls-3,.cls-6{font-size:27px;font-family:MyriadPro-Regular, Myriad Pro;}.cls-4{letter-spacing:-0.03em;}.cls-5{letter-spacing:0em;}.cls-7{letter-spacing:-0.02em;}.cls-8{letter-spacing:-0.01em;}.cls-9{letter-spacing:0.01em;}.cls-10{letter-spacing:0.01em;}.cls-11{letter-spacing:-0.04em;}.cls-12{letter-spacing:-0.03em;}.cls-13{font-size:32px;font-family:Arial-BoldMT, Arial;font-weight:700;}.cls-14{letter-spacing:-0.02em;}.cls-15{letter-spacing:0em;}.cls-16{fill:none;}.cls-17{fill:#fff;stroke:#000;}.cls-17,.cls-18{stroke-miterlimit:10;}.cls-18{stroke:#fff;}.cls-19{fill:url(#linear-gradient-2);}.cls-20{fill:url(#linear-gradient-3);}.cls-21{fill:url(#linear-gradient-4);}.cls-22{fill:url(#linear-gradient-5);}</style><linearGradient id="linear-gradient" y1="373" x2="1366" y2="373" gradientUnits="userSpaceOnUse"><stop offset="0" stop-opacity="0.1"/><stop offset="0.99" stop-color="#fff" stop-opacity="0.3"/></linearGradient><linearGradient id="linear-gradient-2" x1="1110" y1="390" x2="1241" y2="390" gradientUnits="userSpaceOnUse"><stop offset="0" stop-color="#c7c7c7" stop-opacity="0.5"/><stop offset="1" stop-opacity="0.5"/></linearGradient><linearGradient id="linear-gradient-3" x1="587" y1="385" x2="718" y2="385" xlink:href="#linear-gradient-2"/><linearGradient id="linear-gradient-4" x1="368" x2="499" xlink:href="#linear-gradient-2"/><linearGradient id="linear-gradient-5" x1="127" x2="258" xlink:href="#linear-gradient-2"/></defs><title>Liu_An__IID-SVG</title><rect id="intro-bakgrd" class="cls-1" width="1366" height="746"/><path class="cls-2" d="M178.81,50.27H170.2V44.34h24.3v5.93h-8.61V75.63h-7.08Z" transform="translate(1 4)"/><path class="cls-2" d="M193.77,63.73c0-7.92,5.58-12.49,11.61-12.49S217,55.81,217,63.73,211.4,76.2,205.38,76.2,193.77,71.63,193.77,63.73Zm16,0c0-4.12-1.45-6.8-4.36-6.8S201,59.61,201,63.73s1.45,6.78,4.37,6.78S209.74,67.85,209.74,63.73Z" transform="translate(1 4)"/><path class="cls-2" d="M221.8,51.81h5.76l.51,2.35h.17A10.57,10.57,0,0,1,235,51.24c5.77,0,9.3,4.76,9.3,12.1,0,8.18-4.86,12.86-10,12.86a8.32,8.32,0,0,1-5.68-2.48l.24,3.77v7H221.8Zm15.29,11.61c0-4.27-1.32-6.41-4.14-6.41a5.49,5.49,0,0,0-4.09,2.13v9.78a5.66,5.66,0,0,0,3.8,1.51C235.12,70.43,237.09,68.35,237.09,63.42Z" transform="translate(1 4)"/><path class="cls-2" d="M259.11,44.34h19.74v5.93H266.18v7.26H277v5.93H266.18V75.63h-7.07Z" transform="translate(1 4)"/><path class="cls-2" d="M283.14,44.64c0-2.16,1.72-3.69,4.09-3.69a3.71,3.71,0,1,1,0,7.38C284.86,48.33,283.14,46.79,283.14,44.64Zm.55,7.17h7.06V75.63h-7.06Z" transform="translate(1 4)"/><path class="cls-2" d="M294.42,51.81h7.1l3.09,11.24c.61,2.37,1.24,4.83,1.85,7.32h.19c.61-2.49,1.24-5,1.85-7.32l3.1-11.24h6.76l-7.78,23.82h-8.13Z" transform="translate(1 4)"/><path class="cls-2" d="M320.27,63.73c0-7.73,5.51-12.49,11.23-12.49,6.78,0,10.14,4.93,10.14,11.43a15.72,15.72,0,0,1-.29,3.12H327.1c.64,3.45,3,5,6.18,5a10,10,0,0,0,5.15-1.56l2.33,4.25a15.47,15.47,0,0,1-8.45,2.68C325.52,76.2,320.27,71.61,320.27,63.73Zm15.35-2.61c0-2.62-1.14-4.51-4-4.51-2.23,0-4.16,1.5-4.64,4.51Z" transform="translate(1 4)"/><path class="cls-2" d="M356.68,44.34h7.72l5.07,13.9c.63,1.85,1.18,3.85,1.8,5.78h.2c.62-1.93,1.15-3.93,1.78-5.78l4.92-13.9h7.72V75.63h-6.44V64.15c0-3.05.57-7.61.9-10.63h-.19l-2.57,7.4-4.42,12h-3.93l-4.43-12-2.5-7.4h-.19c.33,3,.9,7.58.9,10.63V75.63h-6.34Z" transform="translate(1 4)"/><path class="cls-2" d="M391.3,63.73c0-7.92,5.57-12.49,11.6-12.49s11.6,4.57,11.6,12.49S408.92,76.2,402.9,76.2,391.3,71.63,391.3,63.73Zm16,0c0-4.12-1.45-6.8-4.37-6.8s-4.37,2.68-4.37,6.8,1.45,6.78,4.37,6.78S407.27,67.85,407.27,63.73Z" transform="translate(1 4)"/><path class="cls-2" d="M416.41,51.81h7.09l3.1,11.24c.61,2.37,1.24,4.83,1.85,7.32h.19c.61-2.49,1.24-5,1.85-7.32l3.09-11.24h6.76l-7.77,23.82h-8.13Z" transform="translate(1 4)"/><path class="cls-2" d="M443.47,44.64c0-2.16,1.72-3.69,4.09-3.69a3.71,3.71,0,1,1,0,7.38C445.19,48.33,443.47,46.79,443.47,44.64Zm.55,7.17h7.06V75.63H444Z" transform="translate(1 4)"/><path class="cls-2" d="M455.9,63.73c0-7.73,5.52-12.49,11.24-12.49,6.78,0,10.14,4.93,10.14,11.43a16.53,16.53,0,0,1-.29,3.12H462.74c.63,3.45,3,5,6.18,5a10,10,0,0,0,5.15-1.56l2.33,4.25A15.5,15.5,0,0,1,468,76.2C461.16,76.2,455.9,71.61,455.9,63.73Zm15.35-2.61c0-2.62-1.14-4.51-4-4.51-2.23,0-4.15,1.5-4.63,4.51Z" transform="translate(1 4)"/><path class="cls-2" d="M480,72.88l3.18-4.4a10.31,10.31,0,0,0,6.14,2.5c2.1,0,3-.8,3-2,0-1.57-2.36-2.29-4.81-3.25-2.92-1.13-6.3-3.06-6.3-7,0-4.43,3.6-7.45,9.1-7.45a13.57,13.57,0,0,1,8.39,3l-3.16,4.24a8.86,8.86,0,0,0-5-2c-1.83,0-2.72.71-2.72,1.9,0,1.52,2.23,2.1,4.69,3,3,1.11,6.42,2.81,6.42,7.16s-3.4,7.68-9.78,7.68A15.49,15.49,0,0,1,480,72.88Z" transform="translate(1 4)"/><path class="cls-2" d="M511.6,63.73c0-7.92,5.58-12.49,11.6-12.49s11.6,4.57,11.6,12.49S529.23,76.2,523.2,76.2,511.6,71.63,511.6,63.73Zm16,0c0-4.12-1.45-6.8-4.37-6.8s-4.37,2.68-4.37,6.8,1.45,6.78,4.37,6.78S527.57,67.85,527.57,63.73Z" transform="translate(1 4)"/><path class="cls-2" d="M537.44,52.08l3.56-.27h11v5.54H537.44Zm3.17-1.5c0-5,2.33-9.16,8.76-9.16a13.79,13.79,0,0,1,4.75.85l-1.27,5.2a6.86,6.86,0,0,0-2.47-.51c-1.72,0-2.71.95-2.71,3.41V75.63h-7.06Z" transform="translate(1 4)"/><path class="cls-2" d="M564,71.58c7.76-7.33,13.22-12.54,13.22-16.9,0-3-1.63-4.58-4.31-4.58-2.17,0-3.9,1.49-5.42,3.1l-3.82-3.8c3-3.21,5.84-4.83,10.2-4.83,6,0,10.11,3.83,10.11,9.71,0,5.13-4.79,10.6-9.78,15.77,1.57-.18,3.69-.35,5.1-.35h6.14v5.93H564Z" transform="translate(1 4)"/><path class="cls-2" d="M589.36,60.25c0-10.37,4.36-15.68,10.91-15.68s10.9,5.34,10.9,15.68-4.35,16-10.9,16S589.36,70.62,589.36,60.25Zm15.14,0c0-8.32-1.85-10.23-4.23-10.23S596,51.93,596,60.25s1.85,10.5,4.23,10.5S604.5,68.57,604.5,60.25Z" transform="translate(1 4)"/><path class="cls-2" d="M616.28,69.93h6.66V52.29h-5.71V47.92a20.85,20.85,0,0,0,7.56-2.78H630V69.93h5.71v5.7H616.28Z" transform="translate(1 4)"/><path class="cls-2" d="M640.28,67.83c0-3.67,2.34-5.95,5.22-7.48v-.2c-2.37-1.75-4.1-4-4.1-7.16,0-5.19,4.08-8.42,9.75-8.42s9.27,3.29,9.27,8.36a8.33,8.33,0,0,1-4,6.66v.2c2.91,1.59,5.25,3.92,5.25,8,0,4.81-4.32,8.44-10.78,8.44C644.83,76.2,640.28,72.79,640.28,67.83Zm14.86-.31c0-2.69-2.61-3.71-6.44-5.31A6.64,6.64,0,0,0,646.37,67c0,2.67,2.13,4.26,4.7,4.26C653.39,71.3,655.14,70.06,655.14,67.52Zm-.45-14.11c0-2.37-1.37-3.94-3.7-3.94A3.23,3.23,0,0,0,647.6,53c0,2.47,2.12,3.66,5.22,4.9A6.9,6.9,0,0,0,654.69,53.41Z" transform="translate(1 4)"/><g id="movie-name"><text class="cls-3" transform="translate(106.12 261.17)">1. Black <tspan class="cls-4" x="89.66" y="0">P</tspan><tspan x="103.33" y="0">a</tspan><tspan class="cls-5" x="116.34" y="0">n</tspan><tspan x="131.22" y="0">ther</tspan></text><text class="cls-6" transform="translate(350.12 239.17)">2. <tspan class="cls-7" x="25.16" y="0">A</tspan><tspan class="cls-8" x="41.12" y="0">v</tspan><tspan x="53.84" y="0">engers: </tspan><tspan class="cls-9" x="141.8" y="0">I</tspan><tspan x="148.52" y="0">n</tspan><tspan x="163.51" y="0">-</tspan><tspan x="0" y="32.4">fini</tspan><tspan class="cls-10" x="35.42" y="32.4">t</tspan><tspan x="44.6" y="32.4">y</tspan><tspan class="cls-11" x="57.32" y="32.4"> </tspan><tspan class="cls-12" x="62.07" y="32.4">W</tspan><tspan x="84.02" y="32.4">ar</tspan></text><text class="cls-6" transform="translate(567.12 261.17)">3. <tspan class="cls-9" x="25.16" y="0">I</tspan><tspan x="31.89" y="0">nc</tspan><tspan class="cls-8" x="58.97" y="0">r</tspan><tspan x="67.53" y="0">edibles 2</tspan></text><text class="cls-13" transform="translate(790 214.91)">4. Jurassic <tspan class="cls-14" x="174.34" y="0">W</tspan><tspan x="203.97" y="0">orld: </tspan><tspan x="0" y="38.4">Fallen Kingdom</tspan></text><text class="cls-6" x="1" y="4"><tspan x="1102.12" y="261.57">5. </tspan><tspan class="cls-15" x="1127.28" y="261.57">D</tspan><tspan x="1145.37" y="261.57">eadpool 2</tspan></text><line class="cls-16" x1="837" y1="177" x2="1081.61" y2="177"/></g><polygon class="cls-17" points="632 106.75 654.72 101.21 100.03 101.21 100.03 120.91 657.49 120.91 632 106.75"/><path class="cls-17" d="M105.32,36.86a39.82,39.82,0,1,0,39.82,39.82A39.82,39.82,0,0,0,105.32,36.86Zm0,54.64a14.82,14.82,0,1,1,14.82-14.82A14.81,14.81,0,0,1,105.32,91.5Z" transform="translate(1 4)"/><g id="movie-icon"><rect class="cls-17" x="1095.62" y="95.86" width="151.54" height="89.14"/><rect class="cls-17" x="1090.59" y="53.53" width="148.14" height="18.64" transform="translate(28.46 326) rotate(-15.93)"/><rect class="cls-18" x="1099.67" y="97.48" width="17.83" height="22.69"/><rect class="cls-18" x="1123.18" y="97.48" width="17.83" height="22.69"/><rect class="cls-18" x="1151.54" y="97.48" width="17.83" height="22.69"/><rect class="cls-18" x="1178.28" y="97.48" width="17.83" height="22.69"/><rect class="cls-18" x="1204.21" y="97.48" width="17.83" height="22.69"/><rect class="cls-18" x="1226.09" y="97.48" width="17.83" height="22.69"/><rect class="cls-18" x="1095.27" y="72.34" width="17.83" height="15.72" transform="translate(22.34 314.67) rotate(-16.17)"/><rect class="cls-18" x="1117.84" y="65.8" width="17.83" height="15.72" transform="translate(25.06 320.69) rotate(-16.17)"/><rect class="cls-18" x="1145.08" y="57.9" width="17.83" height="15.72" transform="translate(28.34 327.97) rotate(-16.17)"/><rect class="cls-18" x="1170.76" y="50.45" width="17.83" height="15.72" transform="translate(31.43 334.82) rotate(-16.17)"/><path d="M1128.69,129.22h4.3l2.83,7.75c.35,1,.65,2.14,1,3.22h.11c.35-1.08.65-2.19,1-3.22l2.74-7.75h4.3v17.44h-3.58v-6.4c0-1.7.31-4.24.5-5.93h-.11l-1.43,4.13-2.46,6.68h-2.19l-2.47-6.68-1.39-4.13h-.11c.19,1.69.51,4.23.51,5.93v6.4h-3.54Z" transform="translate(1 4)"/><path d="M1148,140c0-4.42,3.1-7,6.46-7s6.47,2.55,6.47,7-3.11,6.95-6.47,6.95S1148,144.43,1148,140Zm8.9,0c0-2.3-.81-3.79-2.44-3.79S1152,137.73,1152,140s.8,3.77,2.43,3.77S1156.88,142.32,1156.88,140Z" transform="translate(1 4)"/><path d="M1162,133.39h4l1.73,6.26c.34,1.32.68,2.69,1,4.08h.11c.34-1.39.69-2.76,1-4.08l1.73-6.26h3.76L1171,146.66h-4.53Z" transform="translate(1 4)"/><path d="M1177,129.39a2.29,2.29,0,1,1,2.28,2.05A2.1,2.1,0,0,1,1177,129.39Zm.31,4h3.93v13.27h-3.93Z" transform="translate(1 4)"/><path d="M1184,140c0-4.31,3.07-7,6.26-7,3.78,0,5.65,2.75,5.65,6.37a9.42,9.42,0,0,1-.16,1.74h-7.94a3.2,3.2,0,0,0,3.44,2.81,5.57,5.57,0,0,0,2.87-.87l1.3,2.37a8.64,8.64,0,0,1-4.71,1.5C1186.9,147,1184,144.42,1184,140Zm8.55-1.46c0-1.46-.63-2.51-2.2-2.51a2.63,2.63,0,0,0-2.58,2.51Z" transform="translate(1 4)"/><path d="M1197.41,145.12l1.77-2.45a5.74,5.74,0,0,0,3.42,1.4c1.17,0,1.68-.45,1.68-1.14,0-.88-1.32-1.27-2.68-1.81-1.63-.63-3.52-1.71-3.52-3.9,0-2.47,2-4.16,5.08-4.16a7.53,7.53,0,0,1,4.67,1.69l-1.76,2.36a4.89,4.89,0,0,0-2.79-1.14c-1,0-1.52.4-1.52,1.06,0,.85,1.24,1.17,2.62,1.67,1.68.63,3.57,1.57,3.57,4s-1.89,4.28-5.45,4.28A8.56,8.56,0,0,1,1197.41,145.12Z" transform="translate(1 4)"/><rect x="1104.94" y="157.04" width="121.56" height="3.24"/><rect x="1127.63" y="158.66" width="4.86" height="20.26"/><rect x="1202.19" y="158.66" width="4.86" height="20.26"/><rect class="cls-18" x="1216.68" y="37.14" width="17.83" height="15.72" transform="translate(36.95 347.09) rotate(-16.17)"/><rect class="cls-18" x="1195.67" y="43.23" width="17.83" height="15.72" transform="translate(34.42 341.48) rotate(-16.17)"/></g><g id="hover-img-movie"><rect id="intro-bakgrd-2" data-name="intro-bakgrd" class="cls-19" x="1110" y="292" width="131" height="196"/><rect id="intro-bakgrd-3" data-name="intro-bakgrd" class="cls-20" x="587" y="287" width="131" height="196"/><rect id="intro-bakgrd-4" data-name="intro-bakgrd" class="cls-21" x="368" y="292" width="131" height="196"/><rect id="intro-bakgrd-5" data-name="intro-bakgrd" class="cls-22" x="127" y="292" width="131" height="196"/></g><image width="1289" height="468" transform="translate(1 598.12) scale(1.06)" xlink:href="WeChat Image_20181031224719.png"/><image width="228" height="340" transform="translate(88 291) scale(0.91)" xlink:href="images/top1.png"/><image width="398" height="593" transform="translate(335 292) scale(0.52)" xlink:href="images/top2.png"/><image width="392" height="588" transform="translate(581 290) scale(0.53)" xlink:href="images/top3.png"/><image width="393" height="590" transform="translate(836.67 292) scale(0.52)" xlink:href="images/top4.png"/><image width="393" height="588" transform="translate(1084 290) scale(0.53)" xlink:href="images/top5.png"/></svg>