<svg id="Layer_1" data-name="Layer 1" xmlns="http://www.w3.org/2000/svg" viewBox="0 0 457.22 267.17"><defs><style>.cls-1,.cls-2,.cls-6{fill:#959595;}.cls-1,.cls-6{stroke:#000;stroke-miterlimit:10;}.cls-2{font-size:19.94px;font-family:MyriadPro-Regular, Myriad Pro;}.cls-3{fill:#ce9595;}.cls-4{fill:#cadcd2;}.cls-5{fill:#e29b34;}.cls-6{stroke-width:0.5px;}.cls-7{fill:#5ab6b4;}.cls-8{font-size:32px;fill:#f9f9f9;font-family:Arial-BoldMT, Arial;font-weight:700;}</style></defs><title>chart</title><g id="movie-chart"><line class="cls-1" x1="31.24" y1="254.7" x2="456.72" y2="254.7"/><line class="cls-1" x1="31.24" y1="254.7" x2="31.24" y2="248.56"/><line class="cls-1" x1="456.72" y1="254.7" x2="456.72" y2="248.56"/><text class="cls-2" transform="translate(0 262.18)">0.0</text><text class="cls-2" transform="translate(0 213.08)">0.5</text><text class="cls-2" transform="translate(0 163.99)">1.0</text><text class="cls-2" transform="translate(0 114.89)">1.5</text><text class="cls-2" transform="translate(0 65.79)">2.0</text><text class="cls-2" transform="translate(0 16.69)">2.5</text><line class="cls-1" x1="31.24" y1="254.7" x2="31.24" y2="9.21"/><line class="cls-1" x1="31.24" y1="254.7" x2="41.88" y2="254.7"/><line class="cls-1" x1="31.24" y1="205.6" x2="41.88" y2="205.6"/><line class="cls-1" x1="31.24" y1="156.51" x2="41.88" y2="156.51"/><line class="cls-1" x1="31.24" y1="107.41" x2="41.88" y2="107.41"/><line class="cls-1" x1="31.24" y1="58.31" x2="41.88" y2="58.31"/><line class="cls-1" x1="31.24" y1="9.21" x2="41.88" y2="9.21"/><rect class="cls-3" x="349.5" y="182.61" width="61.27" height="72.09"/><rect class="cls-4" x="281.42" y="134.22" width="61.27" height="120.49"/><rect class="cls-5" x="213.34" y="126.56" width="61.27" height="128.14"/><rect class="cls-6" x="145.27" y="122.73" width="61.27" height="131.97"/><rect class="cls-7" x="77.19" y="53.7" width="61.27" height="201.01"/></g><text class="cls-8" transform="translate(72.24 31.13)">2.05</text><text class="cls-8" transform="translate(139.24 92.13)">1.34</text><text class="cls-8" transform="translate(209.24 111.13)">1.31</text><text class="cls-8" transform="translate(279.24 131.13)">1.23</text><text class="cls-8" transform="translate(348.24 171.13)">0.73</text></svg>